<svg xmlns="http://www.w3.org/2000/svg" version="1.1" xmlns:xlink="http://www.w3.org/1999/xlink" xmlns:svgjs="http://svgjs.dev/svgjs" width="1000" height="237" viewBox="0 0 1000 237"><g transform="matrix(1,0,0,1,-0.6060606060606233,0.4662044696180203)"><svg viewBox="0 0 396 94" data-background-color="#ffffff" preserveAspectRatio="xMidYMid meet" height="237" width="1000" xmlns="http://www.w3.org/2000/svg" xmlns:xlink="http://www.w3.org/1999/xlink"><g id="tight-bounds" transform="matrix(1,0,0,1,0.2400000000000091,-0.18490810187381612)"><svg viewBox="0 0 395.52 94.36981580852348" height="94.36981580852348" width="395.52"><g><svg viewBox="0 0 397.49759999999986 94.84166488756608" height="94.36981580852348" width="395.52"><g><rect width="397.49759999999986" height="1.7178875921295111" x="0" y="53.307797073956266" fill="#ffffff" opacity="1" stroke-width="0" stroke="transparent" fill-opacity="1" class="rect-o-0" data-fill-palette-color="secondary" rx="1%" id="o-0" data-palette-color="#010c80"></rect></g><g transform="matrix(1,0,0,1,0.9887999999999693,59.52277260359759)"><svg viewBox="0 0 395.5199999999999 35.318892283968495" height="35.318892283968495" width="395.5199999999999"><g id="textblocktransform"><svg viewBox="0 0 395.5199999999999 35.318892283968495" height="35.318892283968495" width="395.5199999999999" id="textblock"><g><svg viewBox="0 0 395.5199999999999 19.04932283464566" height="19.04932283464566" width="395.5199999999999"><g transform="matrix(1,0,0,1,0,0)"><svg width="395.5199999999999" viewBox="2.5999999046325684 -35.900001525878906 761.9400024414062 36.70000076293945" height="19.04932283464566" data-palette-color="#010c80"><path d="M2.6 0L2.6-2.75Q4-2.8 4.75-3.23 5.5-3.65 5.8-4.73 6.1-5.8 6.1-7.7L6.1-7.7 6.1-27.65Q6.1-28.9 6.18-30.05 6.25-31.2 6.3-31.85L6.3-31.85Q5.45-31.8 4.35-31.78 3.25-31.75 2.6-31.7L2.6-31.7 2.6-35 16.2-35.05Q21-35.05 24.68-33.73 28.35-32.4 30.8-30 33.25-27.6 34.52-24.45 35.8-21.3 35.8-17.7L35.8-17.7Q35.8-14.55 34.68-11.4 33.55-8.25 31.23-5.68 28.9-3.1 25.23-1.55 21.55 0 16.5 0L16.5 0 2.6 0ZM12.4-27.35L12.4-7.45Q12.4-6.1 12.35-4.95 12.3-3.8 12.2-3.15L12.2-3.15Q13-3.15 13.95-3.13 14.9-3.1 15.8-3.08 16.7-3.05 17.15-3.05L17.15-3.05Q20.05-3.05 22.25-4.2 24.45-5.35 25.93-7.3 27.4-9.25 28.15-11.78 28.9-14.3 28.9-17.1L28.9-17.1Q28.9-22.05 27.38-25.38 25.85-28.7 23-30.43 20.15-32.15 15.95-32.2L15.95-32.2Q14.55-32.25 13.75-31.8 12.95-31.35 12.68-30.3 12.4-29.25 12.4-27.35L12.4-27.35ZM52.05-35L52.05-32.25Q50.75-32.2 49.97-31.8 49.2-31.4 48.87-30.53 48.55-29.65 48.55-28.05L48.55-28.05 48.55-14.65Q48.55-11.65 49.12-9.43 49.7-7.2 50.8-5.7 51.9-4.2 53.52-3.45 55.15-2.7 57.3-2.7L57.3-2.7Q60.3-2.6 62.37-3.95 64.45-5.3 65.5-7.9 66.55-10.5 66.55-14.25L66.55-14.25 66.6-27.65Q66.6-28.9 66.65-30.05 66.7-31.2 66.8-31.85L66.8-31.85Q65.95-31.8 64.85-31.78 63.75-31.75 63.1-31.7L63.1-31.7 63.1-35 73.9-35 73.9-32.25Q72.55-32.2 71.77-31.78 71-31.35 70.7-30.3 70.4-29.25 70.4-27.3L70.4-27.3 70.35-15.1Q70.35-11.15 69.42-8.18 68.5-5.2 66.7-3.2 64.9-1.2 62.35-0.2 59.8 0.8 56.55 0.8L56.55 0.8Q52.4 0.8 49.62-0.35 46.85-1.5 45.22-3.68 43.6-5.85 42.92-8.83 42.25-11.8 42.25-15.5L42.25-15.5 42.25-26.95Q42.25-28.25 42.32-29.68 42.4-31.1 42.45-31.85L42.45-31.85Q41.6-31.8 40.5-31.78 39.4-31.75 38.75-31.7L38.75-31.7 38.75-35 52.05-35ZM100.6-24L97.8-24Q97.45-26.65 96.35-28.63 95.25-30.6 93.42-31.68 91.6-32.75 89.05-32.75L89.05-32.75Q86.6-32.75 84.97-31.35 83.35-29.95 83.35-27.9L83.35-27.9Q83.35-26.2 84.32-24.95 85.3-23.7 87.15-22.68 89-21.65 91.55-20.55L91.55-20.55Q93.45-19.75 95.4-18.78 97.35-17.8 99-16.45 100.65-15.1 101.67-13.33 102.7-11.55 102.7-9.1L102.7-9.1Q102.7-6.2 101.17-3.95 99.65-1.7 96.85-0.45 94.05 0.8 90.25 0.8L90.25 0.8Q88.15 0.8 85.8 0.18 83.45-0.45 81.5-1.7L81.5-1.7 81.65 0.45 78.25 0.45 78.15-10.9 81-10.9Q81.55-6.65 84.15-4.48 86.75-2.3 90.4-2.3L90.4-2.3Q92.25-2.3 93.7-2.98 95.15-3.65 95.97-4.83 96.8-6 96.8-7.5L96.8-7.5Q96.8-9.45 95.6-10.7 94.4-11.95 92.55-12.85 90.7-13.75 88.7-14.6L88.7-14.6Q86.45-15.55 84.45-16.63 82.45-17.7 80.92-19.07 79.4-20.45 78.52-22.25 77.65-24.05 77.65-26.5L77.65-26.5Q77.65-27.95 78.2-29.58 78.75-31.2 80.02-32.6 81.3-34 83.45-34.9 85.6-35.8 88.8-35.8L88.8-35.8Q90.8-35.8 93.17-35.23 95.55-34.65 97.35-33.35L97.35-33.35 97.15-35.45 100.6-35.45 100.6-24ZM120.49 0L107.19 0 107.19-2.75Q108.59-2.8 109.34-3.23 110.09-3.65 110.39-4.73 110.69-5.8 110.69-7.7L110.69-7.7 110.69-27.65Q110.69-28.9 110.77-30.05 110.84-31.2 110.89-31.85L110.89-31.85Q110.04-31.8 108.94-31.78 107.84-31.75 107.19-31.7L107.19-31.7 107.19-35 120.49-35 120.49-32.25Q119.14-32.2 118.37-31.78 117.59-31.35 117.29-30.3 116.99-29.25 116.99-27.3L116.99-27.3 116.99-19.35 132.09-19.35 132.09-27.65Q132.09-28.9 132.14-30.05 132.19-31.2 132.29-31.85L132.29-31.85Q131.44-31.8 130.34-31.78 129.24-31.75 128.59-31.7L128.59-31.7 128.59-35 141.89-35 141.89-32.25Q140.54-32.2 139.77-31.78 138.99-31.35 138.69-30.3 138.39-29.25 138.39-27.3L138.39-27.3 138.39-7.45Q138.39-6.1 138.34-4.95 138.29-3.8 138.19-3.15L138.19-3.15Q139.04-3.2 140.17-3.25 141.29-3.3 141.89-3.3L141.89-3.3 141.89 0 128.59 0 128.59-2.75Q129.99-2.8 130.74-3.23 131.49-3.65 131.79-4.73 132.09-5.8 132.09-7.7L132.09-7.7 132.09-16.15 116.99-15.95 116.99-7.45Q116.99-6.1 116.94-4.95 116.89-3.8 116.79-3.15L116.79-3.15Q117.64-3.2 118.74-3.25 119.84-3.3 120.49-3.3L120.49-3.3 120.49 0ZM160.39-35L160.39-32.25Q159.04-32.2 158.27-31.78 157.49-31.35 157.19-30.3 156.89-29.25 156.89-27.3L156.89-27.3 156.89-7.45Q156.89-6.1 156.84-4.95 156.79-3.8 156.69-3.15L156.69-3.15Q157.54-3.2 158.64-3.25 159.74-3.3 160.39-3.3L160.39-3.3 160.39 0 147.09 0 147.09-2.75Q148.49-2.8 149.24-3.23 149.99-3.65 150.29-4.73 150.59-5.8 150.59-7.7L150.59-7.7 150.59-27.65Q150.59-28.9 150.67-30.05 150.74-31.2 150.79-31.85L150.79-31.85Q149.94-31.8 148.84-31.78 147.74-31.75 147.09-31.7L147.09-31.7 147.09-35 160.39-35ZM187.39 0.5L183.79 0.5Q181.94-3.95 180.06-8.33 178.19-12.7 176.34-17.15L176.34-17.15Q175.84-18.3 175.19-20 174.54-21.7 173.89-23.75 173.24-25.8 172.64-27.95L172.64-27.95Q172.74-25.9 172.76-24.08 172.79-22.25 172.74-20.55L172.74-20.55Q172.74-19.2 172.71-17.6 172.69-16 172.64-14.3 172.59-12.6 172.56-10.88 172.54-9.15 172.54-7.55L172.54-7.55Q172.49-6.3 172.44-5.1 172.39-3.9 172.29-3.15L172.29-3.15Q173.19-3.2 174.31-3.25 175.44-3.3 176.09-3.3L176.09-3.3 176.09 0 165.29 0 165.29-2.75Q166.59-2.8 167.34-3.18 168.09-3.55 168.44-4.5 168.79-5.45 168.79-7.2L168.79-7.2 169.34-27.55Q169.39-28.8 169.41-29.95 169.44-31.1 169.49-31.85L169.49-31.85Q168.69-31.8 167.59-31.78 166.49-31.75 165.79-31.7L165.79-31.7 165.79-35 175.74-35 183.64-15.5Q184.14-14.2 184.71-12.7 185.29-11.2 185.84-9.75 186.39-8.3 186.79-7.2L186.79-7.2 186.84-7.2Q187.49-8.8 188.09-10.53 188.69-12.25 189.29-13.75L189.29-13.75Q191.29-19.05 193.36-24.33 195.44-29.6 197.54-35L197.54-35 207.69-35 207.69-32.25Q206.54-32.25 205.71-31.9 204.89-31.55 204.49-30.58 204.09-29.6 204.14-27.55L204.14-27.55 205.09-7.2Q205.19-6 205.11-4.9 205.04-3.8 204.99-3.15L204.99-3.15Q205.84-3.25 206.96-3.28 208.09-3.3 208.74-3.3L208.74-3.3 208.74 0 195.74 0 195.74-2.75Q196.99-2.8 197.79-3.2 198.59-3.6 198.94-4.63 199.29-5.65 199.19-7.65L199.19-7.65 198.59-20.2Q198.59-20.85 198.49-22.1 198.39-23.35 198.34-24.8 198.29-26.25 198.24-27.55L198.24-27.55Q198.09-27.2 197.91-26.85 197.74-26.5 197.64-26.15L197.64-26.15 187.39 0.5ZM226.59-35L226.59-32.25Q225.24-32.2 224.46-31.78 223.69-31.35 223.38-30.3 223.09-29.25 223.09-27.3L223.09-27.3 223.09-7.45Q223.09-6.1 223.03-4.95 222.99-3.8 222.88-3.15L222.88-3.15Q223.74-3.2 224.84-3.25 225.94-3.3 226.59-3.3L226.59-3.3 226.59 0 213.28 0 213.28-2.75Q214.69-2.8 215.44-3.23 216.19-3.65 216.49-4.73 216.78-5.8 216.78-7.7L216.78-7.7 216.78-27.65Q216.78-28.9 216.86-30.05 216.94-31.2 216.99-31.85L216.99-31.85Q216.13-31.8 215.03-31.78 213.94-31.75 213.28-31.7L213.28-31.7 213.28-35 226.59-35ZM245.43 0L231.78 0 231.78-2.75Q233.18-2.8 233.93-3.23 234.68-3.65 234.98-4.73 235.28-5.8 235.28-7.7L235.28-7.7 235.28-27.65Q235.28-28.9 235.36-30.05 235.43-31.2 235.48-31.85L235.48-31.85Q234.63-31.8 233.53-31.78 232.43-31.75 231.78-31.7L231.78-31.7 231.78-35Q235.08-35.05 238.41-35.08 241.73-35.1 245.03-35.1L245.03-35.1Q249.58-35.1 252.76-34.05 255.93-33 257.56-30.78 259.18-28.55 259.13-24.95L259.13-24.95Q259.08-22.9 258.18-20.95 257.28-19 255.33-17.5 253.38-16 250.13-15.15L250.13-15.15Q251.08-14.65 251.96-13.7 252.83-12.75 253.58-11.6L253.58-11.6 256.28-7.45Q257.28-5.9 258.13-4.88 258.98-3.85 259.88-3.33 260.78-2.8 262.03-2.75L262.03-2.75 262.03 0 254.43 0Q253.38-0.85 252.46-2.1 251.53-3.35 250.53-5L250.53-5 246.93-10.75Q246.28-11.8 245.71-12.73 245.13-13.65 244.43-14.3L244.43-14.3Q243.63-14.25 242.98-14.25 242.33-14.25 241.58-14.3L241.58-14.3 241.58-7.5Q241.58-6.1 241.53-4.95 241.48-3.8 241.38-3.15L241.38-3.15Q241.93-3.2 242.71-3.23 243.48-3.25 244.23-3.28 244.98-3.3 245.43-3.3L245.43-3.3 245.43 0ZM244.18-17.3L244.18-17.3Q246.98-17.35 248.81-18.15 250.63-18.95 251.56-20.65 252.48-22.35 252.48-25L252.48-25Q252.48-27.25 251.81-28.65 251.13-30.05 250.01-30.8 248.88-31.55 247.56-31.83 246.23-32.1 244.93-32.1L244.93-32.1Q243.63-32.1 242.88-31.7 242.13-31.3 241.86-30.28 241.58-29.25 241.58-27.5L241.58-27.5 241.58-17.45Q242.18-17.4 242.83-17.35 243.48-17.3 244.18-17.3ZM284.98-12.35L282.23-12.35Q282.23-14.5 281.61-15.43 280.98-16.35 279.81-16.57 278.63-16.8 276.98-16.75L276.98-16.75 274.93-16.65 274.93-7.4Q274.93-6.05 274.88-4.93 274.83-3.8 274.73-3.15L274.73-3.15 282.38-3.2Q284.13-3.2 285.58-3.88 287.03-4.55 287.93-6.18 288.83-7.8 288.83-10.6L288.83-10.6 291.58-10.6 291.33 0 265.13 0 265.13-2.75Q266.53-2.8 267.28-3.23 268.03-3.65 268.33-4.73 268.63-5.8 268.63-7.7L268.63-7.7 268.63-27.65Q268.63-28.9 268.71-30.05 268.78-31.2 268.83-31.85L268.83-31.85Q267.98-31.8 266.88-31.78 265.78-31.75 265.13-31.7L265.13-31.7 265.13-35 289.78-35 290.08-25.6 287.33-25.6Q287.33-28.45 286.41-29.88 285.48-31.3 284.03-31.8 282.58-32.3 281.03-32.25L281.03-32.25 278.43-32.2Q277.08-32.15 276.33-31.75 275.58-31.35 275.26-30.33 274.93-29.3 274.93-27.3L274.93-27.3 274.93-19.65 281.93-19.6 281.68-23.95 284.98-23.95 284.98-12.35ZM326.27 0.8L326.27 0.8Q321.52 0.8 318.18-0.8 314.82-2.4 312.75-5.08 310.68-7.75 309.72-11 308.77-14.25 308.77-17.5L308.77-17.5Q308.77-20.65 309.82-23.88 310.88-27.1 313.05-29.8 315.22-32.5 318.52-34.15 321.82-35.8 326.27-35.8L326.27-35.8Q330.82-35.8 334.15-34.15 337.47-32.5 339.6-29.78 341.72-27.05 342.75-23.85 343.77-20.65 343.77-17.5L343.77-17.5Q343.77-14.4 342.72-11.2 341.68-8 339.5-5.28 337.32-2.55 334.02-0.88 330.72 0.8 326.27 0.8ZM326.68-2.3L326.68-2.3Q329.47-2.3 331.4-3.6 333.32-4.9 334.52-7 335.72-9.1 336.3-11.63 336.88-14.15 336.88-16.6L336.88-16.6Q336.88-19.95 336.18-22.88 335.47-25.8 334.1-28 332.72-30.2 330.63-31.48 328.52-32.75 325.77-32.7L325.77-32.7Q323.02-32.65 321.1-31.33 319.18-30 317.95-27.88 316.72-25.75 316.18-23.2 315.63-20.65 315.63-18.2L315.63-18.2Q315.63-15.7 316.22-12.95 316.82-10.2 318.13-7.75 319.43-5.3 321.55-3.8 323.68-2.3 326.68-2.3ZM371.07-24L368.27-24Q367.92-26.65 366.82-28.63 365.72-30.6 363.9-31.68 362.07-32.75 359.52-32.75L359.52-32.75Q357.07-32.75 355.45-31.35 353.82-29.95 353.82-27.9L353.82-27.9Q353.82-26.2 354.8-24.95 355.77-23.7 357.62-22.68 359.47-21.65 362.02-20.55L362.02-20.55Q363.92-19.75 365.87-18.78 367.82-17.8 369.47-16.45 371.12-15.1 372.15-13.33 373.17-11.55 373.17-9.1L373.17-9.1Q373.17-6.2 371.65-3.95 370.12-1.7 367.32-0.45 364.52 0.8 360.72 0.8L360.72 0.8Q358.62 0.8 356.27 0.18 353.92-0.45 351.97-1.7L351.97-1.7 352.12 0.45 348.72 0.45 348.62-10.9 351.47-10.9Q352.02-6.65 354.62-4.48 357.22-2.3 360.87-2.3L360.87-2.3Q362.72-2.3 364.17-2.98 365.62-3.65 366.45-4.83 367.27-6 367.27-7.5L367.27-7.5Q367.27-9.45 366.07-10.7 364.87-11.95 363.02-12.85 361.17-13.75 359.17-14.6L359.17-14.6Q356.92-15.55 354.92-16.63 352.92-17.7 351.4-19.07 349.87-20.45 349-22.25 348.12-24.05 348.12-26.5L348.12-26.5Q348.12-27.95 348.67-29.58 349.22-31.2 350.5-32.6 351.77-34 353.92-34.9 356.07-35.8 359.27-35.8L359.27-35.8Q361.27-35.8 363.65-35.23 366.02-34.65 367.82-33.35L367.82-33.35 367.62-35.45 371.07-35.45 371.07-24ZM406.82-23.8L404.07-23.8Q403.47-28.15 401.12-30.43 398.77-32.7 395.02-32.7L395.02-32.7Q392.37-32.7 390.3-31.53 388.22-30.35 386.8-28.33 385.37-26.3 384.62-23.63 383.87-20.95 383.87-17.9L383.87-17.9Q383.87-13.45 385.3-10.05 386.72-6.65 389.3-4.7 391.87-2.75 395.32-2.75L395.32-2.75Q398.52-2.75 401.64-4.33 404.77-5.9 406.82-8.8L406.82-8.8 408.87-6.95Q406.52-3.75 403.87-2.08 401.22-0.4 398.69 0.2 396.17 0.8 394.12 0.8L394.12 0.8Q390.27 0.8 387.14-0.58 384.02-1.95 381.75-4.38 379.47-6.8 378.25-10.03 377.02-13.25 377.02-17L377.02-17Q377.02-20.45 378.09-23.8 379.17-27.15 381.34-29.85 383.52-32.55 386.82-34.18 390.12-35.8 394.47-35.8L394.47-35.8Q396.67-35.8 399.07-35.13 401.47-34.45 403.57-33.15L403.57-33.15 403.37-35.45 406.82-35.45 406.82-23.8ZM419.57 0L409.32 0 409.32-2.85Q410.72-2.85 411.57-3.65 412.42-4.45 412.97-5.78 413.52-7.1 414.12-8.75L414.12-8.75 424.07-35.9 426.77-35.9 437.62-8.25Q437.92-7.4 438.42-5.85 438.92-4.3 438.97-3.15L438.97-3.15Q439.82-3.2 440.62-3.25 441.42-3.3 442.02-3.3L442.02-3.3 442.02 0 429.27 0 429.27-2.75Q430.82-2.75 431.37-3.4 431.92-4.05 431.84-5.1 431.77-6.15 431.32-7.25L431.32-7.25 430.07-10.65 418.47-10.45 417.37-7.1Q417.07-6.25 416.67-5.18 416.27-4.1 415.87-3.25L415.87-3.25Q416.77-3.3 417.84-3.35 418.92-3.4 419.57-3.4L419.57-3.4 419.57 0ZM422.27-21.35L419.57-13.65 428.97-13.65 426.27-21Q425.67-22.7 425.14-24.43 424.62-26.15 424.27-27.6L424.27-27.6 424.17-27.6Q423.87-26.6 423.44-25 423.02-23.4 422.27-21.35L422.27-21.35ZM458.22 0L444.57 0 444.57-2.75Q445.97-2.8 446.72-3.23 447.47-3.65 447.77-4.73 448.07-5.8 448.07-7.7L448.07-7.7 448.07-27.65Q448.07-28.9 448.14-30.05 448.22-31.2 448.27-31.85L448.27-31.85Q447.42-31.8 446.32-31.78 445.22-31.75 444.57-31.7L444.57-31.7 444.57-35Q447.87-35.05 451.19-35.08 454.52-35.1 457.82-35.1L457.82-35.1Q462.37-35.1 465.54-34.05 468.72-33 470.34-30.78 471.97-28.55 471.92-24.95L471.92-24.95Q471.87-22.9 470.97-20.95 470.07-19 468.12-17.5 466.17-16 462.92-15.15L462.92-15.15Q463.87-14.65 464.74-13.7 465.62-12.75 466.37-11.6L466.37-11.6 469.07-7.45Q470.07-5.9 470.92-4.88 471.77-3.85 472.67-3.33 473.57-2.8 474.82-2.75L474.82-2.75 474.82 0 467.22 0Q466.17-0.85 465.24-2.1 464.32-3.35 463.32-5L463.32-5 459.72-10.75Q459.07-11.8 458.49-12.73 457.92-13.65 457.22-14.3L457.22-14.3Q456.42-14.25 455.77-14.25 455.12-14.25 454.37-14.3L454.37-14.3 454.37-7.5Q454.37-6.1 454.32-4.95 454.27-3.8 454.17-3.15L454.17-3.15Q454.72-3.2 455.49-3.23 456.27-3.25 457.02-3.28 457.77-3.3 458.22-3.3L458.22-3.3 458.22 0ZM456.97-17.3L456.97-17.3Q459.77-17.35 461.59-18.15 463.42-18.95 464.34-20.65 465.27-22.35 465.27-25L465.27-25Q465.27-27.25 464.59-28.65 463.92-30.05 462.79-30.8 461.67-31.55 460.34-31.83 459.02-32.1 457.72-32.1L457.72-32.1Q456.42-32.1 455.67-31.7 454.92-31.3 454.64-30.28 454.37-29.25 454.37-27.5L454.37-27.5 454.37-17.45Q454.97-17.4 455.62-17.35 456.27-17.3 456.97-17.3ZM521.51 0.6L517.91 0.6 500.56-21.95Q500.01-22.75 499.39-23.58 498.76-24.4 498.16-25.25L498.16-25.25 498.11-25.25 498.21-7.8Q498.21-6.45 498.19-5.2 498.16-3.95 498.06-3.15L498.06-3.15Q498.91-3.2 500.01-3.25 501.11-3.3 501.76-3.3L501.76-3.3 501.76 0 491.11 0 491.11-2.75Q492.41-2.8 493.14-3.18 493.86-3.55 494.21-4.48 494.56-5.4 494.56-6.95L494.56-6.95 494.51-27.75Q494.51-28.95 494.56-30.05 494.61-31.15 494.66-31.85L494.66-31.85Q493.86-31.8 492.76-31.78 491.66-31.75 491.01-31.7L491.01-31.7 491.01-35 498.21-35 514.66-13.75Q515.71-12.4 516.49-11.35 517.26-10.3 517.86-9.45L517.86-9.45 517.91-9.45 517.91-27.65Q517.91-28.9 517.96-30.05 518.01-31.2 518.06-31.85L518.06-31.85Q517.26-31.8 516.16-31.78 515.06-31.75 514.36-31.7L514.36-31.7 514.36-35 525.06-35 525.06-32.25Q523.71-32.2 522.94-31.78 522.16-31.35 521.86-30.3 521.56-29.25 521.56-27.3L521.56-27.3 521.51 0.6ZM536.66 0L526.41 0 526.41-2.85Q527.81-2.85 528.66-3.65 529.51-4.45 530.06-5.78 530.61-7.1 531.21-8.75L531.21-8.75 541.16-35.9 543.86-35.9 554.71-8.25Q555.01-7.4 555.51-5.85 556.01-4.3 556.06-3.15L556.06-3.15Q556.91-3.2 557.71-3.25 558.51-3.3 559.11-3.3L559.11-3.3 559.11 0 546.36 0 546.36-2.75Q547.91-2.75 548.46-3.4 549.01-4.05 548.93-5.1 548.86-6.15 548.41-7.25L548.41-7.25 547.16-10.65 535.56-10.45 534.46-7.1Q534.16-6.25 533.76-5.18 533.36-4.1 532.96-3.25L532.96-3.25Q533.86-3.3 534.93-3.35 536.01-3.4 536.66-3.4L536.66-3.4 536.66 0ZM539.36-21.35L536.66-13.65 546.06-13.65 543.36-21Q542.76-22.7 542.23-24.43 541.71-26.15 541.36-27.6L541.36-27.6 541.26-27.6Q540.96-26.6 540.53-25 540.11-23.4 539.36-21.35L539.36-21.35ZM561.66 0L561.66-2.75Q563.06-2.8 563.81-3.23 564.56-3.65 564.86-4.73 565.16-5.8 565.16-7.7L565.16-7.7 565.16-27.65Q565.16-28.9 565.23-30.05 565.31-31.2 565.36-31.85L565.36-31.85Q564.51-31.8 563.41-31.78 562.31-31.75 561.66-31.7L561.66-31.7 561.66-35Q564.91-35.05 568.21-35.05 571.51-35.05 574.81-35.1L574.81-35.1Q579.36-35.15 582.66-33.98 585.96-32.8 587.71-30.43 589.46-28.05 589.46-24.3L589.46-24.3Q589.46-22.3 588.63-20.33 587.81-18.35 586.03-16.68 584.26-15 581.38-13.95 578.51-12.9 574.46-12.8L574.46-12.8Q573.66-12.8 572.91-12.8 572.16-12.8 571.46-12.85L571.46-12.85 571.46-7.5Q571.46-6.1 571.41-4.95 571.36-3.8 571.26-3.15L571.26-3.15Q571.91-3.2 572.71-3.23 573.51-3.25 574.33-3.28 575.16-3.3 575.61-3.3L575.61-3.3 575.61 0 561.66 0ZM571.46-27.5L571.46-16Q572.11-15.95 572.71-15.9 573.31-15.85 574.01-15.85L574.01-15.85Q576.81-15.85 578.73-16.85 580.66-17.85 581.66-19.73 582.66-21.6 582.66-24.3L582.66-24.3Q582.66-26.75 581.96-28.3 581.26-29.85 580.11-30.68 578.96-31.5 577.56-31.8 576.16-32.1 574.76-32.1L574.76-32.1Q573.46-32.1 572.73-31.7 572.01-31.3 571.73-30.28 571.46-29.25 571.46-27.5L571.46-27.5ZM609.9 0.8L609.9 0.8Q605.15 0.8 601.8-0.8 598.45-2.4 596.38-5.08 594.3-7.75 593.35-11 592.4-14.25 592.4-17.5L592.4-17.5Q592.4-20.65 593.45-23.88 594.5-27.1 596.68-29.8 598.85-32.5 602.15-34.15 605.45-35.8 609.9-35.8L609.9-35.8Q614.45-35.8 617.78-34.15 621.1-32.5 623.23-29.78 625.35-27.05 626.38-23.85 627.4-20.65 627.4-17.5L627.4-17.5Q627.4-14.4 626.35-11.2 625.3-8 623.13-5.28 620.95-2.55 617.65-0.88 614.35 0.8 609.9 0.8ZM610.3-2.3L610.3-2.3Q613.1-2.3 615.03-3.6 616.95-4.9 618.15-7 619.35-9.1 619.93-11.63 620.5-14.15 620.5-16.6L620.5-16.6Q620.5-19.95 619.8-22.88 619.1-25.8 617.73-28 616.35-30.2 614.25-31.48 612.15-32.75 609.4-32.7L609.4-32.7Q606.65-32.65 604.73-31.33 602.8-30 601.58-27.88 600.35-25.75 599.8-23.2 599.25-20.65 599.25-18.2L599.25-18.2Q599.25-15.7 599.85-12.95 600.45-10.2 601.75-7.75 603.05-5.3 605.18-3.8 607.3-2.3 610.3-2.3ZM657.35 0L631.35 0 631.35-2.75Q632.75-2.8 633.5-3.23 634.25-3.65 634.55-4.73 634.85-5.8 634.85-7.7L634.85-7.7 634.85-27.65Q634.85-28.9 634.92-30.05 635-31.2 635.05-31.85L635.05-31.85Q634.2-31.8 633.1-31.78 632-31.75 631.35-31.7L631.35-31.7 631.35-35 644.65-35 644.65-32.25Q643.3-32.2 642.52-31.78 641.75-31.35 641.45-30.3 641.15-29.25 641.15-27.3L641.15-27.3 641.15-7.4Q641.15-6.05 641.1-4.93 641.05-3.8 640.95-3.15L640.95-3.15 648.55-3.2Q651.55-3.25 653.2-5.25 654.85-7.25 654.85-11.45L654.85-11.45 657.65-11.45 657.35 0ZM680.95-12.35L678.2-12.35Q678.2-14.5 677.57-15.43 676.95-16.35 675.77-16.57 674.6-16.8 672.95-16.75L672.95-16.75 670.9-16.65 670.9-7.4Q670.9-6.05 670.85-4.93 670.8-3.8 670.7-3.15L670.7-3.15 678.35-3.2Q680.1-3.2 681.55-3.88 683-4.55 683.9-6.18 684.8-7.8 684.8-10.6L684.8-10.6 687.55-10.6 687.3 0 661.1 0 661.1-2.75Q662.5-2.8 663.25-3.23 664-3.65 664.3-4.73 664.6-5.8 664.6-7.7L664.6-7.7 664.6-27.65Q664.6-28.9 664.67-30.05 664.75-31.2 664.8-31.85L664.8-31.85Q663.95-31.8 662.85-31.78 661.75-31.75 661.1-31.7L661.1-31.7 661.1-35 685.75-35 686.05-25.6 683.3-25.6Q683.3-28.45 682.37-29.88 681.45-31.3 680-31.8 678.55-32.3 677-32.25L677-32.25 674.4-32.2Q673.05-32.15 672.3-31.75 671.55-31.35 671.22-30.33 670.9-29.3 670.9-27.3L670.9-27.3 670.9-19.65 677.9-19.6 677.65-23.95 680.95-23.95 680.95-12.35ZM709.09 0.8L709.09 0.8Q704.34 0.8 700.99-0.8 697.64-2.4 695.57-5.08 693.49-7.75 692.54-11 691.59-14.25 691.59-17.5L691.59-17.5Q691.59-20.65 692.64-23.88 693.69-27.1 695.87-29.8 698.04-32.5 701.34-34.15 704.64-35.8 709.09-35.8L709.09-35.8Q713.64-35.8 716.97-34.15 720.29-32.5 722.42-29.78 724.54-27.05 725.57-23.85 726.59-20.65 726.59-17.5L726.59-17.5Q726.59-14.4 725.54-11.2 724.49-8 722.32-5.28 720.14-2.55 716.84-0.88 713.54 0.8 709.09 0.8ZM709.49-2.3L709.49-2.3Q712.29-2.3 714.22-3.6 716.14-4.9 717.34-7 718.54-9.1 719.12-11.63 719.69-14.15 719.69-16.6L719.69-16.6Q719.69-19.95 718.99-22.88 718.29-25.8 716.92-28 715.54-30.2 713.44-31.48 711.34-32.75 708.59-32.7L708.59-32.7Q705.84-32.65 703.92-31.33 701.99-30 700.77-27.88 699.54-25.75 698.99-23.2 698.44-20.65 698.44-18.2L698.44-18.2Q698.44-15.7 699.04-12.95 699.64-10.2 700.94-7.75 702.24-5.3 704.37-3.8 706.49-2.3 709.49-2.3ZM760.99 0.6L757.39 0.6 740.04-21.95Q739.49-22.75 738.87-23.58 738.24-24.4 737.64-25.25L737.64-25.25 737.59-25.25 737.69-7.8Q737.69-6.45 737.67-5.2 737.64-3.95 737.54-3.15L737.54-3.15Q738.39-3.2 739.49-3.25 740.59-3.3 741.24-3.3L741.24-3.3 741.24 0 730.59 0 730.59-2.75Q731.89-2.8 732.62-3.18 733.34-3.55 733.69-4.48 734.04-5.4 734.04-6.95L734.04-6.95 733.99-27.75Q733.99-28.95 734.04-30.05 734.09-31.15 734.14-31.85L734.14-31.85Q733.34-31.8 732.24-31.78 731.14-31.75 730.49-31.7L730.49-31.7 730.49-35 737.69-35 754.14-13.75Q755.19-12.4 755.97-11.35 756.74-10.3 757.34-9.45L757.34-9.45 757.39-9.45 757.39-27.65Q757.39-28.9 757.44-30.05 757.49-31.2 757.54-31.85L757.54-31.85Q756.74-31.8 755.64-31.78 754.54-31.75 753.84-31.7L753.84-31.7 753.84-35 764.54-35 764.54-32.25Q763.19-32.2 762.42-31.78 761.64-31.35 761.34-30.3 761.04-29.25 761.04-27.3L761.04-27.3 760.99 0.6Z" opacity="1" transform="matrix(1,0,0,1,0,0)" fill="#ffffff" class="undefined-text-0" data-fill-palette-color="primary" id="text-0"></path></svg></g></svg></g><g transform="matrix(1,0,0,1,97.68861138644309,23.546410772157472)"><svg viewBox="0 0 200.14277722711375 11.77248151181102" height="11.77248151181102" width="200.14277722711375"><g transform="matrix(1,0,0,1,0,0)"><svg width="200.14277722711375" viewBox="2 -40.599998474121094 922.5900268554688 54.269996643066406" height="11.77248151181102" data-palette-color="#010c80"><path d="M20.02-15.09L19.29-17.65 10.3-17.65 10.3-2.93 23.9-2.93 25.66-7.25 27.51-7.25 26.71 0 2 0 2-2.08 5.71-2.64 5.71-34.18 2-34.74 2-36.82 25.63-36.82 26.2-29.57 24.05-29.57 22.73-33.86 10.3-33.86 10.3-20.58 19.29-20.58 20.02-23.17 21.75-23.17 21.75-15.09 20.02-15.09ZM33.2-21.56L29.64-22.12 29.64-24.15 41.43-24.15 41.43-22.12 37.96-21.56 42.92-14.53 47.97-21.56 45.46-22.12 45.46-24.15 54.47-24.15 54.47-22.12 51.19-21.61 44.41-12.72 51.66-2.59 55.1-2.03 55.1 0 43.82 0 43.82-2.03 46.9-2.59 41.33-10.3 35.79-2.59 38.33-2.03 38.33 0 29.05 0 29.05-2.03 32.57-2.59 39.82-12.18 33.2-21.56ZM68.33 0.56L68.33 0.56Q65.18 0.56 62.37-0.63L62.37-0.63 62.37 11.08 65.47 11.65 65.47 13.67 55.22 13.67 55.22 11.65 58.39 11.08 58.39-20.53 55.22-21.12 55.22-23.1 62.37-24.73 62.37-21.51Q66.65-24.73 70.82-24.73L70.82-24.73Q75.29-24.73 78.14-21.44L78.14-21.44Q81.05-18.09 81.05-12.67L81.05-12.67Q81.05-7.28 77.83-3.54L77.83-3.54Q74.31 0.56 68.33 0.56ZM62.37-19.04L62.37-19.04 62.37-5.1Q64.47-2.29 69.04-2.29L69.04-2.29Q72.55-2.29 74.75-5.08L74.75-5.08Q76.8-7.64 76.8-11.25L76.8-11.25Q76.8-15.72 74.95-18.51L74.95-18.51Q72.94-21.56 69.5-21.56 66.06-21.56 62.37-19.04ZM91.52-40.6L91.52-2.59 94.65-2.03 94.65 0 84.39 0 84.39-2.03 87.57-2.59 87.57-36.21 84.39-36.82 84.39-38.79 91.52-40.6ZM98.33-11.87L98.33-11.87Q98.33-14.67 99.29-17.09 100.26-19.51 101.92-21.19L101.92-21.19Q105.34-24.73 110.34-24.73L110.34-24.73Q116.15-24.73 119.42-21.29L119.42-21.29Q122.52-17.99 122.52-12.67L122.52-12.67Q122.52-6.74 119.01-3.03L119.01-3.03Q115.59 0.56 110.56 0.56L110.56 0.56Q104.82 0.56 101.48-2.98L101.48-2.98Q98.33-6.3 98.33-11.87ZM104.58-19.15Q103.6-17.9 103.1-16.21 102.6-14.53 102.6-12.56 102.6-10.6 103.05-8.73 103.51-6.86 104.46-5.42L104.46-5.42Q106.56-2.29 110.51-2.29L110.51-2.29Q114.22-2.29 116.27-4.74L116.27-4.74Q118.3-7.13 118.3-11.21L118.3-11.21Q118.3-18.43 114.17-20.92L114.17-20.92Q112.64-21.85 110.54-21.85 108.44-21.85 107-21.13 105.56-20.41 104.58-19.15ZM129.16-2.59L129.16-20.36 126.04-20.92 126.04-22.95 133.12-24.73 133.12-18.51Q138.73-24.73 141.56-24.73L141.56-24.73Q143.88-24.73 145.84-22.88L145.84-22.88 144.57-18.92 143.42-18.92Q143.42-20.12 141.59-20.7L141.59-20.7Q141.08-20.85 140.56-20.85L140.56-20.85Q137.98-20.85 133.12-15.65L133.12-15.65 133.12-2.59 137.95-2.03 137.95 0 126.04 0 126.04-2.03 129.16-2.59ZM154.18-24.73L154.18-2.59 157.31-2.03 157.31 0 147.06 0 147.06-2.03 150.23-2.59 150.23-20.36 147.06-20.92 147.06-22.95 154.18-24.73ZM150.09-32.19Q149.69-32.62 149.45-33.15 149.2-33.69 149.2-34.22 149.2-34.74 149.45-35.27 149.69-35.79 150.08-36.23L150.08-36.23Q150.99-37.21 151.73-37.21 152.48-37.21 153-36.94 153.53-36.67 153.94-36.23L153.94-36.23Q154.84-35.23 154.84-34.46 154.84-33.69 154.59-33.15 154.33-32.62 153.94-32.18L153.94-32.18Q153.01-31.23 152.24-31.23 151.47-31.23 150.99-31.49 150.5-31.76 150.09-32.19ZM174.76-21.56L174.76-21.56Q171.03-21.56 167.27-18.97L167.27-18.97 167.27-2.59 170.37-2.03 170.37 0 160.11 0 160.11-2.03 163.29-2.59 163.29-20.36 160.11-20.92 160.11-22.95 166.85-24.73 166.85-21.56Q171.78-24.73 176.01-24.73L176.01-24.73Q181.09-24.73 182.62-20.51L182.62-20.51Q183.14-19.09 183.14-17.19L183.14-17.19 183.14-2.59 186.24-2.03 186.24 0 176.01 0 176.01-2.03 179.16-2.59 179.16-16.72Q179.16-21.56 174.76-21.56ZM213.33-20.58L210.16-20.58Q211.31-18.73 211.31-15.97L211.31-15.97Q211.31-12.08 207.4-9.08L207.4-9.08Q205.69-7.76 203.4-6.88L203.4-6.88 199.66-5.47Q196.98-4.47 196.62-4.09 196.27-3.71 196.27-3.48 196.27-3.25 196.51-3.03 196.76-2.81 197.32-2.61L197.32-2.61Q198.66-2.15 201.08-2.15 203.5-2.15 205.6-1.89 207.69-1.64 209.31-0.93L209.31-0.93Q212.82 0.66 212.82 4.49L212.82 4.49Q212.82 7.08 210.8 9.3L210.8 9.3Q207.99 12.35 202.84 13.38L202.84 13.38Q201.3 13.67 199.44 13.67 197.59 13.67 195.66 13.28 193.73 12.89 192.29 12.06L192.29 12.06Q189.24 10.33 189.24 6.86L189.24 6.86Q189.24 4.17 191.51 2.73L191.51 2.73 193.1 1.78Q193.75 1.44 194.57 1.27 195.39 1.1 196.22 0.88L196.22 0.88Q193.58 0.37 192.58-1.22L192.58-1.22Q192.24-1.78 192.24-2.4 192.24-3.03 192.48-3.47 192.73-3.91 193.36-4.35 194-4.79 195.12-5.32L195.12-5.32 198.03-6.69Q195.73-7.13 193.73-8.81L193.73-8.81Q190.97-11.13 190.97-15.36L190.97-15.36Q190.97-19.41 194.54-22.22L194.54-22.22Q197.69-24.73 201.47-24.73 205.25-24.73 208.01-22.95L208.01-22.95Q209.77-24.17 213.82-24.68L213.82-24.68 214.48-23.93 213.33-20.58ZM193.66 5.46Q193.51 6.13 193.51 7.15 193.51 8.18 194.27 9.05 195.02 9.91 196.2 10.38L196.2 10.38Q198.1 11.13 200.5 11.13 202.91 11.13 204.18 10.74 205.45 10.35 206.4 9.62L206.4 9.62Q208.55 8.01 208.55 5.42L208.55 5.42Q208.55 2.17 203.96 1.76L203.96 1.76Q202.62 1.64 201.15 1.64L201.15 1.64Q196.95 1.64 194.49 4.1L194.49 4.1Q193.8 4.79 193.66 5.46ZM195.51-18.95L195.51-18.95Q195-17.75 195-16.03 195-14.31 195.51-13.04 196.02-11.77 196.9-10.89L196.9-10.89Q198.69-9.11 201.49-9.11L201.49-9.11Q205.16-9.11 206.72-12.18L206.72-12.18Q207.3-13.33 207.3-15.03 207.3-16.72 206.79-18.04 206.28-19.36 205.4-20.29L205.4-20.29Q203.57-22.22 200.81-22.22L200.81-22.22Q196.9-22.22 195.51-18.95ZM249.9-21.56L249.9-21.56Q246.17-21.56 242.41-18.97L242.41-18.97 242.41-2.59 245.51-2.03 245.51 0 235.25 0 235.25-2.03 238.43-2.59 238.43-20.36 235.25-20.92 235.25-22.95 241.99-24.73 241.99-21.56Q246.92-24.73 251.15-24.73L251.15-24.73Q256.23-24.73 257.76-20.51L257.76-20.51Q258.28-19.09 258.28-17.19L258.28-17.19 258.28-2.59 261.38-2.03 261.38 0 251.15 0 251.15-2.03 254.3-2.59 254.3-16.72Q254.3-21.56 249.9-21.56ZM284.23-5.59L284.23-5.59 285.62-4Q281.74-0.51 278.1 0.37L278.1 0.37Q277.29 0.56 276.51 0.56L276.51 0.56Q271.14 0.56 267.77-2.83L267.77-2.83Q264.43-6.15 264.43-11.5L264.43-11.5Q264.43-16.82 267.58-20.61L267.58-20.61Q271.04-24.73 276.58-24.73L276.58-24.73Q280.42-24.73 283.05-21.97L283.05-21.97Q285.86-19.09 285.86-14.48L285.86-14.48 284.71-13.45 268.8-12.3Q268.84-7.86 271.68-5.2L271.68-5.2Q274.22-2.86 277.58-2.86 280.95-2.86 284.23-5.59ZM268.97-14.6L268.97-14.6 281.52-15.75Q281.34-19.8 278.39-21.31L278.39-21.31Q277.34-21.85 275.7-21.85 274.07-21.85 272.79-21.04 271.51-20.24 270.68-19.09L270.68-19.09Q269.09-16.92 268.97-14.6ZM326.8-21.56L318.28 0 314.89 0 308.73-17.26 302.36 0 298.97 0 290.4-21.56 287.62-22.12 287.62-24.15 297.7-24.15 297.7-22.12 294.87-21.56 301.56-3.96 307.32-20.36 306.61-21.56 303.51-22.12 303.51-24.15 314.15-24.15 314.15-22.12 311.15-21.56 317.47-3.96Q317.47-3.96 323.87-21.68L323.87-21.68 321.04-22.12 321.04-24.15 329.54-24.15 329.54-22.12 326.8-21.56ZM362.59-21.56L362.59-21.56Q358.9-21.56 354.97-18.97L354.97-18.97 354.97-2.59 358.07-2.03 358.07 0 347.82 0 347.82-2.03 350.99-2.59 350.99-36.21 347.82-36.82 347.82-38.79 354.97-40.6 354.97-21.56Q357.41-23.24 359.77-23.99 362.12-24.73 363.78-24.73 365.44-24.73 366.76-24.27 368.08-23.8 369.01-22.85L369.01-22.85Q370.96-20.87 370.96-17.19L370.96-17.19 370.96-2.59 374.06-2.03 374.06 0 363.83 0 363.83-2.03 366.98-2.59 366.98-16.72Q366.98-21.56 362.59-21.56ZM377.82-11.87L377.82-11.87Q377.82-14.67 378.78-17.09 379.75-19.51 381.41-21.19L381.41-21.19Q384.83-24.73 389.83-24.73L389.83-24.73Q395.64-24.73 398.91-21.29L398.91-21.29Q402.01-17.99 402.01-12.67L402.01-12.67Q402.01-6.74 398.5-3.03L398.5-3.03Q395.08 0.56 390.05 0.56L390.05 0.56Q384.31 0.56 380.97-2.98L380.97-2.98Q377.82-6.3 377.82-11.87ZM384.07-19.15Q383.09-17.9 382.59-16.21 382.09-14.53 382.09-12.56 382.09-10.6 382.54-8.73 382.99-6.86 383.95-5.42L383.95-5.42Q386.05-2.29 390-2.29L390-2.29Q393.71-2.29 395.76-4.74L395.76-4.74Q397.79-7.13 397.79-11.21L397.79-11.21Q397.79-18.43 393.66-20.92L393.66-20.92Q392.13-21.85 390.03-21.85 387.93-21.85 386.49-21.13 385.05-20.41 384.07-19.15ZM408.65-2.59L408.65-20.36 405.53-20.92 405.53-22.95 412.61-24.73 412.61-18.51Q418.22-24.73 421.05-24.73L421.05-24.73Q423.37-24.73 425.33-22.88L425.33-22.88 424.06-18.92 422.91-18.92Q422.91-20.12 421.08-20.7L421.08-20.7Q420.57-20.85 420.05-20.85L420.05-20.85Q417.46-20.85 412.61-15.65L412.61-15.65 412.61-2.59 417.44-2.03 417.44 0 405.53 0 405.53-2.03 408.65-2.59ZM433.67-24.73L433.67-2.59 436.8-2.03 436.8 0 426.54 0 426.54-2.03 429.72-2.59 429.72-20.36 426.54-20.92 426.54-22.95 433.67-24.73ZM429.58-32.19Q429.18-32.62 428.94-33.15 428.69-33.69 428.69-34.22 428.69-34.74 428.94-35.27 429.18-35.79 429.57-36.23L429.57-36.23Q430.48-37.21 431.22-37.21 431.96-37.21 432.49-36.94 433.01-36.67 433.43-36.23L433.43-36.23Q434.33-35.23 434.33-34.46 434.33-33.69 434.08-33.15 433.82-32.62 433.43-32.18L433.43-32.18Q432.5-31.23 431.73-31.23 430.96-31.23 430.48-31.49 429.99-31.76 429.58-32.19ZM439.6-2.25L453.98-21.85 443.71-21.85 441.53-19.26 439.92-19.26 441.24-24.15 459.13-24.15 459.13-21.9 444.75-2.29 456.06-2.29 458.26-4.88 459.87-4.88 458.55 0 439.6 0 439.6-2.25ZM465.31-11.87L465.31-11.87Q465.31-14.67 466.27-17.09 467.24-19.51 468.9-21.19L468.9-21.19Q472.32-24.73 477.32-24.73L477.32-24.73Q483.13-24.73 486.4-21.29L486.4-21.29Q489.5-17.99 489.5-12.67L489.5-12.67Q489.5-6.74 485.99-3.03L485.99-3.03Q482.57 0.56 477.54 0.56L477.54 0.56Q471.8 0.56 468.46-2.98L468.46-2.98Q465.31-6.3 465.31-11.87ZM471.56-19.15Q470.58-17.9 470.08-16.21 469.58-14.53 469.58-12.56 469.58-10.6 470.03-8.73 470.48-6.86 471.44-5.42L471.44-5.42Q473.54-2.29 477.49-2.29L477.49-2.29Q481.2-2.29 483.25-4.74L483.25-4.74Q485.28-7.13 485.28-11.21L485.28-11.21Q485.28-18.43 481.15-20.92L481.15-20.92Q479.62-21.85 477.52-21.85 475.42-21.85 473.98-21.13 472.54-20.41 471.56-19.15ZM508.4-21.56L508.4-21.56Q504.66-21.56 500.9-18.97L500.9-18.97 500.9-2.59 504-2.03 504 0 493.75 0 493.75-2.03 496.92-2.59 496.92-20.36 493.75-20.92 493.75-22.95 500.49-24.73 500.49-21.56Q505.42-24.73 509.64-24.73L509.64-24.73Q514.72-24.73 516.26-20.51L516.26-20.51Q516.77-19.09 516.77-17.19L516.77-17.19 516.77-2.59 519.87-2.03 519.87 0 509.64 0 509.64-2.03 512.79-2.59 512.79-16.72Q512.79-21.56 508.4-21.56ZM524.09-7.13L525.36-7.13Q525.36-2.03 531.61-2.03L531.61-2.03Q533.98-2.03 535.4-3.08L535.4-3.08Q536.69-4.03 536.69-5.47L536.69-5.47Q536.69-6.98 535.93-7.81L535.93-7.81Q534.44-9.45 531.62-10.42 528.8-11.4 527.4-12.29 526-13.18 525.19-14.16L525.19-14.16Q523.8-15.82 523.8-17.74 523.8-19.65 524.52-20.87 525.24-22.09 526.41-22.95L526.41-22.95Q528.9-24.73 532.17-24.73L532.17-24.73Q536.1-24.73 539.03-23L539.03-23 538.47-18.29 537.15-18.29Q537.15-22.12 532.05-22.12L532.05-22.12Q529.83-22.12 528.68-21.25 527.54-20.39 527.54-19.09L527.54-19.09Q527.54-16.24 533.91-13.92L533.91-13.92Q539.86-11.72 540.62-8.18L540.62-8.18Q540.82-7.18 540.82-5.8 540.82-4.42 539.93-3.13 539.03-1.83 537.69-1.03L537.69-1.03Q535.08 0.56 531.66 0.56L531.66 0.56Q528.32 0.56 525.41-0.73L525.41-0.73Q524.12-1.29 523.17-2.03L523.17-2.03 524.09-7.13ZM567.11-24.73L567.11-2.59 570.23-2.03 570.23 0 559.98 0 559.98-2.03 563.15-2.59 563.15-20.36 559.98-20.92 559.98-22.95 567.11-24.73ZM563.02-32.19Q562.61-32.62 562.37-33.15 562.13-33.69 562.13-34.22 562.13-34.74 562.37-35.27 562.61-35.79 563-36.23L563-36.23Q563.91-37.21 564.65-37.21 565.4-37.21 565.92-36.94 566.45-36.67 566.86-36.23L566.86-36.23Q567.76-35.23 567.76-34.46 567.76-33.69 567.51-33.15 567.25-32.62 566.86-32.18L566.86-32.18Q565.93-31.23 565.16-31.23 564.4-31.23 563.91-31.49 563.42-31.76 563.02-32.19ZM587.68-21.56L587.68-21.56Q583.95-21.56 580.19-18.97L580.19-18.97 580.19-2.59 583.29-2.03 583.29 0 573.04 0 573.04-2.03 576.21-2.59 576.21-20.36 573.04-20.92 573.04-22.95 579.77-24.73 579.77-21.56Q584.71-24.73 588.93-24.73L588.93-24.73Q594.01-24.73 595.55-20.51L595.55-20.51Q596.06-19.09 596.06-17.19L596.06-17.19 596.06-2.59 599.16-2.03 599.16 0 588.93 0 588.93-2.03 592.08-2.59 592.08-16.72Q592.08-21.56 587.68-21.56ZM631.87-24.73L631.87-24.73Q634.92-24.73 637.95-23.54L637.95-23.54 637.95-36.06 634.21-36.82 634.21-38.79 641.9-40.6 641.9-3.91Q641.9-2.81 643.14-2.81 644.37-2.81 646.22-3.56L646.22-3.56 646.74-1.27Q643.25 0.56 641.51 0.56L641.51 0.56Q639 0.56 638.22-1.07L638.22-1.07Q637.95-1.66 637.95-2.47L637.95-2.47Q636.12-0.85 634.04-0.15 631.97 0.56 629.73 0.56 627.5 0.56 625.42-0.29 623.35-1.15 621.96-2.73L621.96-2.73Q619.25-5.83 619.25-11.5L619.25-11.5Q619.25-16.92 622.44-20.61L622.44-20.61Q625.98-24.73 631.87-24.73ZM631.87-2.86L631.87-2.86Q634.33-2.86 637.95-5.18L637.95-5.18 637.95-19.04Q635.85-21.85 631.26-21.85L631.26-21.85Q627.72-21.85 625.52-18.99L625.52-18.99Q623.47-16.28 623.47-12.01L623.47-12.01Q623.47-8.13 625.42-5.64L625.42-5.64Q627.57-2.86 631.87-2.86ZM667.95-5.59L667.95-5.59 669.34-4Q665.46-0.51 661.82 0.37L661.82 0.37Q661.02 0.56 660.24 0.56L660.24 0.56Q654.86 0.56 651.49-2.83L651.49-2.83Q648.15-6.15 648.15-11.5L648.15-11.5Q648.15-16.82 651.3-20.61L651.3-20.61Q654.77-24.73 660.31-24.73L660.31-24.73Q664.14-24.73 666.78-21.97L666.78-21.97Q669.59-19.09 669.59-14.48L669.59-14.48 668.44-13.45 652.52-12.3Q652.57-7.86 655.4-5.2L655.4-5.2Q657.94-2.86 661.31-2.86 664.68-2.86 667.95-5.59ZM652.69-14.6L652.69-14.6 665.24-15.75Q665.07-19.8 662.12-21.31L662.12-21.31Q661.07-21.85 659.43-21.85 657.79-21.85 656.51-21.04 655.23-20.24 654.4-19.09L654.4-19.09Q652.81-16.92 652.69-14.6ZM674.34-7.13L675.61-7.13Q675.61-2.03 681.86-2.03L681.86-2.03Q684.23-2.03 685.65-3.08L685.65-3.08Q686.94-4.03 686.94-5.47L686.94-5.47Q686.94-6.98 686.18-7.81L686.18-7.81Q684.7-9.45 681.88-10.42 679.06-11.4 677.65-12.29 676.25-13.18 675.44-14.16L675.44-14.16Q674.05-15.82 674.05-17.74 674.05-19.65 674.77-20.87 675.49-22.09 676.66-22.95L676.66-22.95Q679.15-24.73 682.43-24.73L682.43-24.73Q686.36-24.73 689.29-23L689.29-23 688.72-18.29 687.41-18.29Q687.41-22.12 682.3-22.12L682.3-22.12Q680.08-22.12 678.93-21.25 677.79-20.39 677.79-19.09L677.79-19.09Q677.79-16.24 684.16-13.92L684.16-13.92Q690.12-11.72 690.87-8.18L690.87-8.18Q691.07-7.18 691.07-5.8 691.07-4.42 690.18-3.13 689.29-1.83 687.94-1.03L687.94-1.03Q685.33 0.56 681.91 0.56L681.91 0.56Q678.57 0.56 675.66-0.73L675.66-0.73Q674.37-1.29 673.42-2.03L673.42-2.03 674.34-7.13ZM700.61-24.73L700.61-2.59 703.74-2.03 703.74 0 693.48 0 693.48-2.03 696.66-2.59 696.66-20.36 693.48-20.92 693.48-22.95 700.61-24.73ZM696.52-32.19Q696.12-32.62 695.87-33.15 695.63-33.69 695.63-34.22 695.63-34.74 695.87-35.27 696.12-35.79 696.51-36.23L696.51-36.23Q697.41-37.21 698.16-37.21 698.9-37.21 699.43-36.94 699.95-36.67 700.37-36.23L700.37-36.23Q701.27-35.23 701.27-34.46 701.27-33.69 701.01-33.15 700.76-32.62 700.37-32.18L700.37-32.18Q699.44-31.23 698.67-31.23 697.9-31.23 697.41-31.49 696.92-31.76 696.52-32.19ZM730.56-20.58L727.39-20.58Q728.54-18.73 728.54-15.97L728.54-15.97Q728.54-12.08 724.63-9.08L724.63-9.08Q722.92-7.76 720.63-6.88L720.63-6.88 716.89-5.47Q714.21-4.47 713.85-4.09 713.5-3.71 713.5-3.48 713.5-3.25 713.74-3.03 713.99-2.81 714.55-2.61L714.55-2.61Q715.89-2.15 718.31-2.15 720.73-2.15 722.83-1.89 724.92-1.64 726.54-0.93L726.54-0.93Q730.05 0.66 730.05 4.49L730.05 4.49Q730.05 7.08 728.03 9.3L728.03 9.3Q725.22 12.35 720.07 13.38L720.07 13.38Q718.53 13.67 716.67 13.67 714.82 13.67 712.89 13.28 710.96 12.89 709.52 12.06L709.52 12.06Q706.47 10.33 706.47 6.86L706.47 6.86Q706.47 4.17 708.74 2.73L708.74 2.73 710.33 1.78Q710.98 1.44 711.8 1.27 712.62 1.1 713.45 0.88L713.45 0.88Q710.81 0.37 709.81-1.22L709.81-1.22Q709.47-1.78 709.47-2.4 709.47-3.03 709.72-3.47 709.96-3.91 710.59-4.35 711.23-4.79 712.35-5.32L712.35-5.32 715.26-6.69Q712.96-7.13 710.96-8.81L710.96-8.81Q708.2-11.13 708.2-15.36L708.2-15.36Q708.2-19.41 711.77-22.22L711.77-22.22Q714.92-24.73 718.7-24.73 722.48-24.73 725.24-22.95L725.24-22.95Q727-24.17 731.05-24.68L731.05-24.68 731.71-23.93 730.56-20.58ZM710.89 5.46Q710.74 6.13 710.74 7.15 710.74 8.18 711.5 9.05 712.25 9.91 713.43 10.38L713.43 10.38Q715.33 11.13 717.74 11.13 720.14 11.13 721.41 10.74 722.68 10.35 723.63 9.62L723.63 9.62Q725.78 8.01 725.78 5.42L725.78 5.42Q725.78 2.17 721.19 1.76L721.19 1.76Q719.85 1.64 718.38 1.64L718.38 1.64Q714.18 1.64 711.72 4.1L711.72 4.1Q711.03 4.79 710.89 5.46ZM712.74-18.95L712.74-18.95Q712.23-17.75 712.23-16.03 712.23-14.31 712.74-13.04 713.26-11.77 714.13-10.89L714.13-10.89Q715.92-9.11 718.72-9.11L718.72-9.11Q722.39-9.11 723.95-12.18L723.95-12.18Q724.53-13.33 724.53-15.03 724.53-16.72 724.02-18.04 723.51-19.36 722.63-20.29L722.63-20.29Q720.8-22.22 718.04-22.22L718.04-22.22Q714.13-22.22 712.74-18.95ZM750.39-21.56L750.39-21.56Q746.65-21.56 742.89-18.97L742.89-18.97 742.89-2.59 745.99-2.03 745.99 0 735.74 0 735.74-2.03 738.91-2.59 738.91-20.36 735.74-20.92 735.74-22.95 742.48-24.73 742.48-21.56Q747.41-24.73 751.63-24.73L751.63-24.73Q756.71-24.73 758.25-20.51L758.25-20.51Q758.76-19.09 758.76-17.19L758.76-17.19 758.76-2.59 761.86-2.03 761.86 0 751.63 0 751.63-2.03 754.78-2.59 754.78-16.72Q754.78-21.56 750.39-21.56ZM802.8-26.34L800.85-26.34Q800.85-32.81 795.4-32.81L795.4-32.81Q793.01-32.81 791.47-31.27L791.47-31.27Q789.91-29.71 789.91-27.37L789.91-27.37Q789.91-24.71 794.42-19.87L794.42-19.87 799.97-14.01Q804.12-9.77 805.81-8.19 807.51-6.62 808.9-5.57L808.9-5.57Q811.93-3.32 813.75-3.32 815.57-3.32 817.08-4.32L817.08-4.32 818.57-2.76Q815.08 0.56 812.25 0.56L812.25 0.56Q810.34 0.56 808.41-0.71L808.41-0.71Q807.49-1.32 806.48-2.15L806.48-2.15 804.29-3.96Q800.02 0.56 794.35 0.56L794.35 0.56Q789.18 0.56 786.1-1.9L786.1-1.9Q782.9-4.44 782.9-8.91L782.9-8.91Q782.9-12.4 785.15-15.04L785.15-15.04Q787.03-17.29 789.91-18.38L789.91-18.38Q785.61-23.39 785.61-27.1L785.61-27.1Q785.61-30.93 788.52-33.3L788.52-33.3Q791.27-35.55 795.28-35.55L795.28-35.55Q798.67-35.55 800.75-34.85 802.82-34.16 803.68-33.64L803.68-33.64 802.8-26.34ZM799.06-8.81L791.71-16.55 791.71-16.5Q789.88-15.55 788.75-13.76 787.61-11.96 787.61-10.05 787.61-8.13 788.06-6.84 788.52-5.54 789.47-4.54L789.47-4.54Q791.57-2.29 795.5-2.29L795.5-2.29Q799.14-2.29 802.7-5.32L802.7-5.32Q800.87-6.98 799.06-8.81L799.06-8.81ZM838.19-21.29L838.19-7.47Q838.19-2.59 842.15-2.59L842.15-2.59Q844.22-2.59 846.18-4.3L846.18-4.3 847.5-2.69Q845.42-0.98 843.66-0.21 841.9 0.56 840.56 0.56 839.22 0.56 837.96-0.02 836.7-0.61 835.87-1.71L835.87-1.71Q834.24-3.83 834.24-7.74L834.24-7.74 834.24-21.29 831.14-21.29 831.14-23.41 834.24-24.15 834.24-27.42 837.12-30.3 838.19-30.3 838.19-24.15 846.25-24.15 846.25-21.29 838.19-21.29ZM868.24-5.59L868.24-5.59 869.64-4Q865.75-0.51 862.12 0.37L862.12 0.37Q861.31 0.56 860.53 0.56L860.53 0.56Q855.16 0.56 851.79-2.83L851.79-2.83Q848.45-6.15 848.45-11.5L848.45-11.5Q848.45-16.82 851.59-20.61L851.59-20.61Q855.06-24.73 860.6-24.73L860.6-24.73Q864.44-24.73 867.07-21.97L867.07-21.97Q869.88-19.09 869.88-14.48L869.88-14.48 868.73-13.45 852.82-12.3Q852.86-7.86 855.7-5.2L855.7-5.2Q858.24-2.86 861.6-2.86 864.97-2.86 868.24-5.59ZM852.99-14.6L852.99-14.6 865.53-15.75Q865.36-19.8 862.41-21.31L862.41-21.31Q861.36-21.85 859.72-21.85 858.09-21.85 856.81-21.04 855.53-20.24 854.7-19.09L854.7-19.09Q853.11-16.92 852.99-14.6ZM893.51-5.59L893.51-5.59 894.9-4Q891.02-0.51 887.38 0.37L887.38 0.37Q886.58 0.56 885.8 0.56L885.8 0.56Q880.45 0.56 877.15-2.83L877.15-2.83Q873.96-6.13 873.96-11.5L873.96-11.5Q873.96-16.87 877.15-20.61L877.15-20.61Q880.72-24.73 886.72-24.73L886.72-24.73Q890.73-24.73 893.8-23.41L893.8-23.41 893.22-18.51 891.68-18.51Q891.68-20.97 888.73-21.63L888.73-21.63Q887.8-21.85 886.14-21.85 884.48-21.85 882.88-21.08 881.28-20.31 880.25-19.04L880.25-19.04Q878.23-16.53 878.23-12.89L878.23-12.89Q878.23-8.42 880.43-5.74L880.43-5.74Q882.79-2.86 886.52-2.86 890.24-2.86 893.51-5.59ZM913.11-21.56L913.11-21.56Q909.43-21.56 905.5-18.97L905.5-18.97 905.5-2.59 908.6-2.03 908.6 0 898.34 0 898.34-2.03 901.52-2.59 901.52-36.21 898.34-36.82 898.34-38.79 905.5-40.6 905.5-21.56Q907.94-23.24 910.29-23.99 912.65-24.73 914.31-24.73 915.97-24.73 917.29-24.27 918.61-23.8 919.53-22.85L919.53-22.85Q921.49-20.87 921.49-17.19L921.49-17.19 921.49-2.59 924.59-2.03 924.59 0 914.36 0 914.36-2.03 917.51-2.59 917.51-16.72Q917.51-21.56 913.11-21.56Z" opacity="1" transform="matrix(1,0,0,1,0,0)" fill="#ffffff" class="undefined-text-1" data-fill-palette-color="secondary" id="text-1"></path></svg></g></svg></g></svg></g></svg></g><g transform="matrix(1,0,0,1,170.64439375593264,0)"><svg viewBox="0 0 56.20881248813459 48.81070913644446" height="48.81070913644446" width="56.20881248813459"><g><svg xmlns="http://www.w3.org/2000/svg" xmlns:xlink="http://www.w3.org/1999/xlink" version="1.1" x="8" y="0" viewBox="9.80000114440918 1.1999998092651367 80.39998626708984 97.60000610351562" style="enable-background:new 0 0 100 100;" xml:space="preserve" height="48.81070913644446" width="40.20881248813459" class="icon-icon-0" data-fill-palette-color="accent" id="icon-0"><path d="M79.1 8.2c0-3.8-3.1-7-7-7s-7 3.1-7 7c0 3.1 2.1 5.8 5 6.7v23.7L59.1 48v50.7h4V49.8l11.1-9.4V14.9C77 14 79.1 11.4 79.1 8.2zM72.1 11.2c-1.6 0-3-1.3-3-3s1.3-3 3-3 3 1.3 3 3S73.7 11.2 72.1 11.2z" fill="#ffffff" data-fill-palette-color="accent"></path><path d="M29.9 38.6V26.3c2.9-0.9 5-3.5 5-6.7 0-3.8-3.1-7-7-7s-7 3.1-7 7c0 3.1 2.1 5.8 5 6.7v14.1l11.1 9.4v48.9h4V48L29.9 38.6zM24.9 19.7c0-1.6 1.3-3 3-3s3 1.3 3 3-1.3 3-3 3S24.9 21.3 24.9 19.7z" fill="#ffffff" data-fill-palette-color="accent"></path><path d="M23.1 52c0.5-0.9 0.7-2 0.7-3.1 0-3.8-3.1-7-7-7s-7 3.1-7 7c0 3.8 3.1 7 7 7 1.3 0 2.5-0.3 3.5-0.9l5.6 4.3v39.5h4V57.2L23.1 52zM16.8 51.9c-1.6 0-3-1.3-3-3s1.3-3 3-3 3 1.3 3 3S18.5 51.9 16.8 51.9z" fill="#ffffff" data-fill-palette-color="accent"></path><path d="M57 39.5c0-3.8-3.1-7-7-7s-7 3.1-7 7c0 3.1 2.1 5.8 5 6.7v52.5h4V46.2C54.9 45.3 57 42.6 57 39.5zM50 42.5c-1.6 0-3-1.3-3-3s1.3-3 3-3c1.6 0 3 1.3 3 3S51.6 42.5 50 42.5z" fill="#ffffff" data-fill-palette-color="accent"></path><path d="M83.2 52.4c-3.8 0-7 3.1-7 7 0 1.1 0.3 2.1 0.7 3.1l-6.8 5.2v31.1h4V69.6l5.6-4.3c1 0.6 2.2 0.9 3.5 0.9 3.8 0 7-3.1 7-7S87 52.4 83.2 52.4zM83.2 62.3c-1.6 0-3-1.3-3-3 0-1.6 1.3-3 3-3s3 1.3 3 3C86.1 61 84.8 62.3 83.2 62.3z" fill="#ffffff" data-fill-palette-color="accent"></path></svg></g></svg></g><g><rect width="94.1112737559327" height="1.7178875921295111" y="46.092821544314944" x="226.85320624406722" fill="#ffffff" data-fill-palette-color="secondary"></rect><rect width="94.1112737559327" height="1.7178875921295111" y="46.092821544314944" x="76.53311999999994" fill="#ffffff" data-fill-palette-color="secondary"></rect></g></svg></g><defs></defs></svg><rect width="395.52" height="94.36981580852348" fill="none" stroke="none" visibility="hidden"></rect></g></svg></g></svg>